<mxfile host="app.diagrams.net" modified="2024-06-28T21:22:25.149Z" agent="Mozilla/5.0 (Windows NT 10.0; Win64; x64) AppleWebKit/537.36 (KHTML, like Gecko) Chrome/126.0.0.0 Safari/537.36" version="24.6.4" etag="uKGkSFyz8P5Y2HCtmcWL" type="github">
  <diagram name="PÃ¡gina-1" id="uxQamM1_208eMyhoLgmC">
    <mxGraphModel>
      <root>
        <mxCell id="0" />
        <mxCell id="1" parent="0" />
      </root>
    </mxGraphModel>
  </diagram>
</mxfile>
